<svg width="40" height="40" viewBox="0 0 40 40" xmlns="http://www.w3.org/2000/svg"><title>Address Book Icon</title><g><path d="M10.773 12.907l7.426.784-.082.777-7.426-.784zM18.117 18.374l-7.426-.784.082-.777 7.426.784zM18.117 22.281l-7.426-.784.082-.777 7.426.784zM18.117 26.186l-7.426-.784.082-.777 7.426.784zM30.226 12.907l.082.777-7.426.784-.082-.777zM30.227 16.813l.082.777-7.426.784-.082-.777zM30.227 20.72l.082.777-7.426.784-.082-.777zM22.883 26.187l-.082-.777 7.426-.784.082.777z"/><path d="M8 9v19.538l12.5 1.613 12.5-1.613v-19.538l-12.5 1.613-12.5-1.613zm.781.888l11.328 1.462v17.962l-11.328-1.461v-17.962zm23.438 17.963l-11.328 1.462v-17.962l11.328-1.462v17.963z"/></g></svg>