<svg width="40" height="40" viewBox="0 0 40 40" xmlns="http://www.w3.org/2000/svg"><title>Alert Icon</title><g><path d="M20.5 32c2.979 0 5.779-1.196 7.885-3.369 2.107-2.172 3.267-5.06 3.267-8.131 0-3.072-1.16-5.959-3.267-8.131-2.106-2.172-4.907-3.369-7.885-3.369-2.979 0-5.779 1.196-7.885 3.369-2.107 2.172-3.267 5.06-3.267 8.131 0 3.072 1.16 5.959 3.267 8.131 2.106 2.172 4.906 3.369 7.885 3.369zm-7.392-19.123c1.975-2.037 4.6-3.158 7.392-3.158 2.792 0 5.418 1.122 7.392 3.158 1.975 2.036 3.062 4.743 3.062 7.623s-1.088 5.587-3.062 7.623c-1.975 2.037-4.6 3.158-7.392 3.158-2.793 0-5.418-1.122-7.392-3.158-1.975-2.036-3.062-4.743-3.062-7.623s1.088-5.587 3.062-7.623zM20.152 15.109h.697v7.906h-.697zM20.152 24.453h.697v1.438h-.697z"/></g></svg>