<svg width="23" height="22" viewBox="0 0 23 22" xmlns="http://www.w3.org/2000/svg">
    <title>Icon: Question Mark</title>
    <g>
        <path d="M11.5-.015c-2.979 0-5.779 1.143-7.885 3.217-2.107 2.073-3.267 4.831-3.267 7.764s1.16 5.691 3.267 7.765c2.106 2.074 4.906 3.217 7.885 3.217s5.779-1.143 7.885-3.217c2.107-2.074 3.267-4.832 3.267-7.765s-1.16-5.691-3.267-7.765c-2.106-2.074-4.907-3.217-7.885-3.217zm0 20.508c-2.584 0-5.013-.991-6.84-2.791-1.827-1.799-2.834-4.191-2.834-6.735 0-2.544 1.006-4.936 2.834-6.736 1.827-1.8 4.256-2.791 6.84-2.791 2.584 0 5.013.991 6.84 2.791 1.827 1.799 2.834 4.191 2.834 6.735 0 2.544-1.006 4.936-2.834 6.736-1.827 1.8-4.256 2.791-6.84 2.791z"/>
        <path d="M10.6 15.714h.697l-.5-.457v.686l.5-.457h-.697l.5.457v-.686l-.5.457zm0-.914h-.5v1.6h1.697v-1.6h-1.197zM8.5 7.859h1.197v-.5c0-.59.364-.873 1.939-.873 1.223 0 1.939.605 1.939 1.559 0 .505-.818 1.251-1.62 1.647-.969.482-1.865 1.586-1.865 3.501v.843h1.697v-.843c0-.68.18-1.195.479-1.581.174-.226.35-.361.447-.41.343-.169.814-.458 1.276-.85.794-.675 1.283-1.441 1.283-2.306 0-1.908-1.527-3.245-3.636-3.245-2.324 0-3.636.862-3.636 2.559v.5h.5zm0-1l.5.5c0-1.035.798-1.559 2.636-1.559 1.584 0 2.636.921 2.636 2.245 0 .91-1.014 1.773-2.004 2.261-.764.385-1.48 1.311-1.48 2.887v.343h.5v-.5h-.697v.5h.5v-.343c0-.868.246-1.535.657-2.041.246-.302.49-.483.652-.564 1.124-.556 2.175-1.514 2.175-2.543 0-1.548-1.198-2.559-2.939-2.559-2.08 0-2.939.666-2.939 1.873l.5-.5h-.697z"/>
    </g>
</svg>
