<svg width="23" height="22" viewBox="0 0 23 22" xmlns="http://www.w3.org/2000/svg">
    <title>Icon: Question Mark</title>
    <g>
        <path d="M11.5-.015c-2.979 0-5.779 1.143-7.885 3.217-2.107 2.073-3.267 4.831-3.267 7.764s1.16 5.691 3.267 7.765c2.106 2.074 4.906 3.217 7.885 3.217s5.779-1.143 7.885-3.217c2.107-2.074 3.267-4.832 3.267-7.765s-1.16-5.691-3.267-7.765c-2.106-2.074-4.907-3.217-7.885-3.217zm7.392 18.261c-1.975 1.945-4.6 3.016-7.392 3.016-2.793 0-5.418-1.071-7.392-3.016-1.975-1.944-3.062-4.529-3.062-7.279s1.088-5.335 3.062-7.279c1.975-1.945 4.6-3.016 7.392-3.016 2.792 0 5.418 1.071 7.392 3.016 1.975 1.944 3.062 4.529 3.062 7.279s-1.088 5.335-3.062 7.279z"/>
        <path d="M10.455 14.741h.697v1.373h-.697z"/>
        <path d="M11.5 5.133c-2.081 0-3.136.693-3.136 2.059h.697c0-.639.277-1.373 2.439-1.373 1.482 0 2.439.808 2.439 2.059 0 .949-1.371 1.834-1.898 2.095-.065.032-1.587.807-1.587 3.053v.343h.697v-.343c0-1.805 1.154-2.415 1.201-2.438.093-.046 2.284-1.143 2.284-2.709 0-1.616-1.29-2.745-3.136-2.745z"/>
    </g>
</svg>
