<svg width="40" height="40" viewBox="0 0 40 40" xmlns="http://www.w3.org/2000/svg"><title>FAQ Icon</title><g><path d="M20.5 9c-2.979 0-5.779 1.145-7.885 3.223-2.107 2.077-3.267 4.839-3.267 7.777 0 2.938 1.16 5.7 3.267 7.778 2.106 2.078 4.906 3.222 7.885 3.222s5.779-1.145 7.885-3.223c2.107-2.077 3.267-4.84 3.267-7.778 0-2.938-1.16-5.7-3.267-7.778-2.106-2.078-4.907-3.222-7.885-3.222zm7.392 18.292c-1.975 1.948-4.6 3.021-7.392 3.021-2.793 0-5.418-1.073-7.392-3.021-1.975-1.947-3.062-4.537-3.062-7.291 0-2.754 1.088-5.344 3.062-7.292 1.975-1.948 4.6-3.021 7.392-3.021 2.792 0 5.418 1.073 7.392 3.021 1.975 1.947 3.062 4.537 3.062 7.291 0 2.754-1.088 5.344-3.062 7.292zM19.455 23.781h.697v1.375h-.697zM20.5 14.156c-2.081 0-3.136.694-3.136 2.063h.697c0-.64.277-1.375 2.439-1.375 1.482 0 2.439.81 2.439 2.063 0 .95-1.371 1.837-1.898 2.099-.065.032-1.587.809-1.587 3.058v.344h.697v-.344c0-1.808 1.154-2.419 1.201-2.442.093-.046 2.284-1.145 2.284-2.714 0-1.619-1.29-2.75-3.136-2.75z"/></g></svg>