<svg width="40" height="40" viewBox="0 0 40 40" xmlns="http://www.w3.org/2000/svg"><title>Delete Icon</title><g fill="#000"><path d="M15.589 25.255l.51.506 4.401-4.434 4.434 4.401.506-.51-4.434-4.401 4.401-4.435-.51-.506-4.401 4.434-4.434-4.401-.506.51 4.434 4.401-4.401 4.435zM20.5 32h.001c3.072 0 5.96-1.197 8.132-3.368 2.172-2.172 3.368-5.06 3.368-8.132s-1.196-5.96-3.368-8.132c-2.172-2.172-5.06-3.368-8.132-3.368h-.001c-3.072 0-5.96 1.196-8.132 3.368-2.172 2.172-3.368 5.06-3.368 8.132s1.196 5.96 3.368 8.132c2.172 2.172 5.06 3.368 8.132 3.368zm-7.623-19.123c2.036-2.036 4.744-3.158 7.624-3.158h.001c2.879 0 5.587 1.122 7.623 3.157 2.036 2.036 3.157 4.744 3.157 7.623 0 2.88-1.121 5.588-3.157 7.624-2.036 2.036-4.743 3.158-7.623 3.158h-.002c-2.879 0-5.587-1.122-7.623-3.157-2.036-2.036-3.157-4.744-3.157-7.623 0-2.88 1.121-5.588 3.157-7.624z"/></g></svg>