<svg width="40" height="40" viewBox="0 0 40 40" xmlns="http://www.w3.org/2000/svg"><title>Favourite Icon</title><path d="M26.25 9.902c-2.644 0-4.902 1.441-5.75 3.45-.848-2.009-3.106-3.45-5.75-3.45-3.599 0-5.75 3.003-5.75 5.907 0 2.984 1.914 6.169 5.689 9.465 2.781 2.428 5.603 4.022 5.631 4.038l.18.101.18-.101c.028-.016 2.85-1.61 5.631-4.038 3.775-3.296 5.689-6.481 5.689-9.465 0-2.903-2.151-5.907-5.75-5.907zm-5.75 18.704c-1.426-.842-10.781-6.603-10.781-12.797 0-2.562 1.882-5.212 5.031-5.212 2.593 0 5.391 1.727 5.391 4.517h.719c0-2.79 2.798-4.517 5.391-4.517 3.149 0 5.031 2.65 5.031 5.212 0 6.191-9.355 11.955-10.781 12.797z" fill-rule="evenodd"/></svg>