<svg width="40" height="40" viewBox="0 0 40 40" xmlns="http://www.w3.org/2000/svg"><title>History Icon</title><g><path d="M23.592 22.643l-3.202-3.202v-7.203h-.736v7.508l3.418 3.418.52-.52zM27.731 11.31h3.071v-.736h-4.046l-.368.368v4.046h.736v-3.247l1.646 1.646c1.33 1.872 2.032 4.078 2.032 6.382 0 6.084-4.95 11.033-11.033 11.033-6.084 0-11.033-4.95-11.033-11.033 0-6.084 4.95-11.033 11.033-11.033v-.736c-6.489 0-11.769 5.279-11.769 11.769 0 6.489 5.279 11.769 11.769 11.769 6.489 0 11.769-5.279 11.769-11.769 0-2.469-.756-4.831-2.186-6.834l-1.62-1.625z"/></g></svg>