<svg width="40" height="40" viewBox="0 0 40 40" xmlns="http://www.w3.org/2000/svg"><title>Instagram Icon</title><path d="M11.934 9h16.99c1.614 0 2.934 1.195 2.934 2.934v16.991c0 1.739-1.32 2.934-2.934 2.934h-16.99c-1.614 0-2.934-1.195-2.934-2.934v-16.991c0-1.739 1.32-2.934 2.934-2.934zm13.717 2.54c-.566 0-1.029.463-1.029 1.029v2.463c0 .566.463 1.029 1.029 1.029h2.584c.566 0 1.029-.463 1.029-1.029v-2.463c0-.566-.463-1.029-1.029-1.029h-2.584zm3.623 7.127h-2.012c.19.621.293 1.28.293 1.961 0 3.802-3.182 6.884-7.105 6.884-3.924 0-7.105-3.082-7.105-6.884 0-.682.103-1.34.293-1.961h-2.099v9.656c0 .5.409.909.909.909h15.917c.5 0 .909-.409.909-.909v-9.656zm-8.824-2.735c-2.535 0-4.591 1.991-4.591 4.448 0 2.457 2.055 4.448 4.591 4.448 2.535 0 4.591-1.991 4.591-4.448 0-2.457-2.055-4.448-4.591-4.448z"/></svg>