<svg width="151" height="31" viewBox="0 0 151 31" xmlns="http://www.w3.org/2000/svg"><title>logo</title><g><path d="M9.356 22.842c-.077 0-.164.042-.482.199-.605.298-1.863.919-2.836.919-2.67 0-4.068-1.802-4.068-3.582 0-2.326 1.986-3.543 3.949-3.543 1.061 0 2.025.292 2.944.889l.055.039c.1.07.213.149.399.149.292 0 .569-.275.569-.567 0-.277-.167-.44-.348-.574-.897-.67-2.265-1.071-3.661-1.071-3.365 0-5.126 2.353-5.126 4.678 0 2.287 1.84 4.718 5.247 4.718 1.021 0 2.923-.41 3.759-1.287.116-.117.169-.24.169-.398 0-.334-.234-.568-.569-.568"/><path d="M16.637 15.7c-1.092 0-2.19.313-3.35.955v-14.99c0-.288-.233-.607-.568-.607-.336 0-.61.272-.61.607v22.584c0 .334.274.606.61.606.335 0 .568-.32.568-.606v-6.293c1.163-.744 2.276-1.121 3.31-1.121 2.07 0 2.23 1.303 2.23 3.145v4.269c0 .287.233.606.569.606.336 0 .609-.272.609-.606v-4.429c0-1.769-.349-4.12-3.367-4.12"/><path d="M25.555 23.96c-1.023 0-1.71-.67-1.71-1.667 0-3.332 4.541-5.458 7.667-5.458h.146c-.749 2.95-3.137 7.125-6.102 7.125zm6.516-8.261c-1.391 0-2.624.186-3.77.568-4.218 1.381-5.715 4.109-5.715 6.026 0 1.677 1.177 2.803 2.928 2.803 1.872 0 4.409-1.394 6.149-5.237v4.39c0 .287.234.606.569.606.336 0 .609-.272.609-.606v-7.821c0-.609-.282-.728-.769-.728z"/><path d="M42.381 16.653l-.048-.039c-.77-.606-1.68-.914-2.703-.914-1.904 0-3.928 1.15-3.928 3.282 0 1.887 1.383 2.378 2.495 2.774.908.322 1.464.551 1.464 1.176 0 .759-.677 1.029-1.31 1.029-.39 0-.748-.142-1.065-.269-.272-.108-.529-.21-.774-.21-.293 0-.569.276-.569.568 0 .759 2.05 1.047 2.407 1.047 1.237 0 2.569-.69 2.569-2.204 0-1.396-1.137-1.808-2.139-2.171-.977-.355-1.819-.66-1.819-1.699 0-1.436 1.363-2.186 2.709-2.186 1.12 0 1.773.599 2.248 1.036.28.256.481.442.711.442.292 0 .569-.276.569-.569 0-.385-.421-.764-.816-1.091"/><path d="M45.989 9.436c-.547 0-1.009.443-1.009.967s.462.967 1.009.967c.505 0 1.048-.37 1.048-.967 0-.598-.544-.967-1.048-.967"/><path d="M45.989 15.94c-.335 0-.569.233-.569.568v7.741c0 .287.234.606.569.606.336 0 .609-.272.609-.606v-7.741c0-.324-.261-.568-.609-.568"/><path d="M55.305 15.7c-1.636 0-2.834.821-3.869 1.773v-.965c0-.324-.261-.568-.609-.568-.335 0-.569.233-.569.568v7.741c0 .287.234.606.569.606.336 0 .609-.272.609-.606v-5.286c.692-.816 2.076-2.127 3.829-2.127 1.736 0 1.871 1.071 1.871 2.585v4.829c0 .346.244.606.568.606.336 0 .61-.272.61-.606v-4.829c0-1.932-.365-3.72-3.008-3.72"/><path d="M63.863 23.96c-1.023 0-1.71-.67-1.71-1.667 0-3.332 4.541-5.458 7.668-5.458h.145c-.748 2.95-3.136 7.125-6.102 7.125zm6.517-8.261c-1.391 0-2.625.186-3.771.568-4.218 1.381-5.714 4.109-5.714 6.026 0 1.677 1.177 2.803 2.927 2.803 1.872 0 4.41-1.394 6.149-5.237v5.188c0 1.052-.062 2.071-.802 2.965-.68.821-1.685 1.255-2.908 1.255-1.792 0-2.572-.923-3.089-1.535-.265-.313-.456-.54-.709-.54-.293 0-.569.275-.569.567 0 .137.061.233.107.304l.044.073c1.118 1.589 2.379 2.266 4.216 2.266 1.578 0 2.896-.587 3.81-1.698.894-1.095 1.077-2.27 1.077-3.697v-8.578c0-.609-.282-.728-.769-.728z"/><path d="M87.691 15.94h-5.708v-10.486c0-1.597.47-3.502 2.71-3.502 1.469 0 2.428.907 2.631 2.489l.009.066c.032.238.08.598.558.598.335 0 .569-.266.569-.647 0-2.041-1.654-3.64-3.766-3.64-2.435 0-3.889 1.733-3.889 4.636v10.486h-1.55c-.302 0-.568.246-.568.528 0 .292.276.567.568.567h1.55v12.56c0 .293.277.569.569.569.348 0 .61-.244.61-.569v-12.56h5.38v7.214c0 .334.273.606.609.606.335 0 .569-.32.569-.606v-7.741c0-.568-.532-.568-.849-.568"/><path d="M87.972 9.436c-.505 0-1.048.369-1.048.967 0 .597.544.967 1.048.967.547 0 1.009-.443 1.009-.967s-.462-.967-1.009-.967"/><path d="M102.477 19.691c.268-1.666 1.705-2.856 3.485-2.856 1.703 0 3.059 1.19 3.29 2.856h-6.775zm3.445-3.991c-2.651 0-4.727 2.055-4.727 4.678 0 2.734 2.038 4.718 4.847 4.718 1.557 0 3.07-.679 4.06-1.833.088-.132.187-.281.187-.451 0-.346-.245-.607-.57-.607-.151 0-.296.129-.558.363-.547.486-1.566 1.393-3.16 1.393-1.954 0-3.385-1.28-3.538-3.134h7.417c.575 0 .648-.389.648-.729 0-2.466-2.024-4.398-4.607-4.398z"/><path d="M118.118.818c-2.435 0-3.887 1.733-3.887 4.636v10.486h-1.55c-.304 0-.57.246-.57.528 0 .292.277.567.57.567h1.55v12.56c0 .293.276.569.568.569.348 0 .61-.244.61-.569v-12.56h3.357c.282 0 .529-.264.529-.567 0-.292-.238-.528-.529-.528h-3.357v-10.486c0-1.597.47-3.502 2.709-3.502 1.469 0 2.428.907 2.632 2.489l.009.065.021.132-.017.128v19.484c0 .287.233.606.569.606.336 0 .609-.272.609-.606v-19.484l-.021-.15.021-.158c0-2.007-1.715-3.64-3.823-3.64"/><path d="M125.652 15.94c-.335 0-.569.233-.569.568v7.741c0 .287.233.606.569.606.336 0 .609-.272.609-.606v-7.741c0-.324-.262-.568-.609-.568"/><path d="M130.444 19.691c.268-1.666 1.705-2.856 3.485-2.856 1.703 0 3.059 1.19 3.29 2.856h-6.775zm3.445-3.991c-2.65 0-4.726 2.055-4.726 4.678 0 2.734 2.038 4.718 4.847 4.718 1.558 0 3.07-.679 4.059-1.831.087-.133.188-.282.188-.453 0-.346-.245-.607-.569-.607-.151 0-.296.13-.56.363-.547.487-1.566 1.393-3.159 1.393-1.954 0-3.385-1.28-3.538-3.134h7.417c.575 0 .648-.389.648-.729 0-2.466-2.024-4.398-4.607-4.398z"/><path d="M144.566 16.835c1.12 0 1.772.599 2.248 1.036.28.256.481.442.711.442.292 0 .569-.276.569-.569 0-.384-.421-.764-.815-1.09l-.049-.04c-.771-.606-1.68-.914-2.703-.914-1.905 0-3.928 1.15-3.928 3.282 0 1.887 1.383 2.378 2.495 2.774.908.323 1.463.551 1.463 1.176 0 .759-.676 1.029-1.309 1.029-.391 0-.749-.142-1.066-.269-.272-.108-.529-.21-.774-.21-.292 0-.569.276-.569.568 0 .759 2.051 1.047 2.408 1.047 1.237 0 2.568-.69 2.568-2.204 0-1.396-1.136-1.808-2.138-2.171-.977-.355-1.819-.66-1.819-1.699 0-1.436 1.363-2.186 2.709-2.186"/><path d="M99.517 17.571l-.006-.039c-.002-.008-.049-.188-.142-.413l-.033-.079-.142-.278-.078-.123c-.13-.198-.266-.345-.414-.449l-.059-.034c-.406-.299-.916-.457-1.478-.457-1.642 0-2.85 1.171-3.912 2.237-.019-1.083-.191-2.237-1.726-2.237h-.223c-.334 0-.586.235-.586.547 0 .323.263.585.586.585h.006v.003h.178c.414 0 .591.308.591 1.029v6.385c0 .346.244.606.568.606.337 0 .61-.272.61-.606v-4.761c1.695-1.76 2.997-2.652 3.869-2.652.764 0 1.199.413 1.225 1.159l.001.131c.003.343.005.64.211.8l.023.015c.096.098.2.119.274.119l.169-.038c.143-.036.272-.126.366-.256.092-.129.134-.348.135-.727l-.008-.328-.004-.139"/><path d="M125.122 12.73c-.054.142-.014.219.134.206.149-.014.493-.29.561-.65l.083-.755c.046-.356-.058-.525-.15-.827-.092-.302-.199-.667-.481-.859-.282-.193-.734-.367-.983-.05-.249.319-.177.539-.087.733.182.411.46.583.624.825.145.247.329.484.325.745.017.255.013.515-.024.632"/><path d="M128.29 9.567c-.303-.187-.541-.002-.646.195-.084.194-.298.481-.358.776-.041.29-.179.344-.276.669-.117.329-.244.619-.38.866-.116.243-.287.435-.49.677-.197.262-.111.264-.476.457-.349.169-.372.346-.186.497.183.043.505.033.68-.139.172-.191.434-.36.597-.399.144-.034.381-.219.639-.409l.529-.599c.165-.125.434-.729.602-1.027.167-.299.167-.58.141-.876-.026-.296-.074-.501-.377-.69"/><path d="M148.642 23.392h-.296v-.623h.413l.149.015.133.048.095.093.036.148-.047.177-.123.095-.169.039-.19.007zm.476.152l.149-.099.101-.152.037-.219c0-.166-.045-.293-.134-.38-.088-.087-.238-.131-.447-.131h-.71v1.841h.233v-.806h.331l.55.806h.262l-.55-.806.179-.054z"/><path d="M149.954 24.023c-.072.166-.17.31-.292.434-.123.123-.269.22-.435.292-.167.072-.344.108-.533.108-.189 0-.367-.036-.534-.108-.166-.072-.311-.169-.434-.292-.123-.124-.221-.268-.293-.434-.071-.166-.107-.344-.107-.532 0-.189.036-.367.107-.533.072-.166.17-.31.293-.433.123-.124.268-.221.434-.293.167-.072.345-.108.534-.108.189 0 .366.036.533.108.166.072.312.169.435.293.122.123.22.267.292.433.072.166.107.344.107.533 0 .188-.035.366-.107.532zm.213-1.152c-.084-.194-.199-.362-.344-.507-.146-.145-.315-.26-.508-.344-.194-.084-.401-.126-.621-.126-.221 0-.428.042-.622.126-.193.084-.363.199-.508.344-.145.144-.259.313-.344.507-.084.192-.127.399-.127.62 0 .22.043.427.127.62s.199.362.344.507c.145.144.315.259.508.343.194.084.401.127.622.127.22 0 .427-.043.621-.127.193-.084.362-.199.508-.343.145-.144.259-.314.344-.507.084-.193.127-.4.127-.62 0-.221-.043-.428-.127-.62z"/></g></svg>