<svg width="40" height="40" viewBox="0 0 40 40" xmlns="http://www.w3.org/2000/svg"><title>Password Icon</title><g><path d="M26.8 13.8c0-3.75-3.05-6.8-6.8-6.8s-6.8 3.05-6.8 6.8v6h-3.2v12.8h20v-12.8h-3.2v-6zm-12.8 0c0-3.308 2.692-6 6-6s6 2.692 6 6v6h-12v-6zm15.2 18h-18.4v-11.2h18.4v11.2zM19.6 27.759v1.241h.8v-1.241c.912-.186 1.6-.994 1.6-1.959 0-1.103-.897-2-2-2s-2 .897-2 2c0 .966.688 1.774 1.6 1.959zm.4-3.159c.662 0 1.2.538 1.2 1.2 0 .662-.538 1.2-1.2 1.2-.662 0-1.2-.538-1.2-1.2 0-.662.538-1.2 1.2-1.2z"/></g></svg>