<svg width="40" height="40" viewBox="0 0 40 40" xmlns="http://www.w3.org/2000/svg"><title>Pinterest Icon</title><path d="M20.484 8c-6.895 0-12.484 5.589-12.484 12.484s5.589 12.484 12.484 12.484 12.484-5.589 12.484-12.484-5.59-12.484-12.484-12.484zm1.21 16.681c-1.134-.088-1.61-.65-2.499-1.19-.489 2.565-1.087 5.024-2.856 6.308-.546-3.876.802-6.788 1.428-9.878-1.068-1.797.128-5.414 2.38-4.523 2.771 1.096-2.399 6.681 1.071 7.379 3.624.728 5.103-6.288 2.856-8.569-3.247-3.294-9.451-.075-8.688 4.642.186 1.153 1.377 1.503.476 3.094-2.078-.461-2.698-2.099-2.618-4.285.128-3.576 3.213-6.08 6.308-6.427 3.913-.438 7.586 1.436 8.093 5.118.571 4.155-1.766 8.654-5.951 8.331z"/></svg>