<svg width="40" height="40" viewBox="0 0 40 40" xmlns="http://www.w3.org/2000/svg"><title>Registry Icon</title><g><path d="M33 18.268h-26v-4.518h26v4.518zm-25.188-.821h24.375v-2.875h-24.375v2.875zM30.969 31h-21.938v-13.554h21.938v13.554zm-21.125-.821h20.313v-11.911h-20.313v11.911z"/><path d="M19.594 14.161h.813v16.429h-.813z"/><path d="M19.993 14.571c-.151 0-1.51-.014-2.856-.501-1.848-.669-2.824-1.916-2.824-3.606 0-1.284.897-2.082 2.341-2.082 1.775 0 3.753 1.192 3.753 2.904v3.282l-.414.003zm-3.339-5.368c-.571 0-1.528.164-1.528 1.261 0 2.73 3.299 3.192 4.469 3.27v-2.449c0-1.173-1.581-2.082-2.94-2.082zM20.007 14.571l-.414-.003v-3.282c0-1.711 1.978-2.904 3.753-2.904 1.444 0 2.341.798 2.341 2.082 0 1.691-.977 2.938-2.824 3.606-1.346.487-2.705.501-2.856.501zm3.339-5.368c-1.36 0-2.94.91-2.94 2.082v2.448c.487-.034 1.347-.134 2.183-.436 1.517-.549 2.286-1.502 2.286-2.833 0-1.097-.957-1.261-1.528-1.261z"/></g></svg>