<svg width="40" height="40" viewBox="0 0 40 40" xmlns="http://www.w3.org/2000/svg"><title>icons/search</title><path d="M16.431 23.862c1.922 0 3.669-.739 4.99-1.94l1.587 1.587-1.062 1.062 7.223 7.223 2.623-2.623-7.223-7.223-1.062 1.062-1.587-1.587c1.201-1.321 1.94-3.068 1.94-4.99 0-4.098-3.334-7.431-7.431-7.431-4.097 0-7.431 3.333-7.431 7.431s3.334 7.431 7.431 7.431zm14.361 5.308l-1.623 1.623-6.223-6.223 1.623-1.623 6.223 6.223zm-14.361-19.462c3.707 0 6.723 3.016 6.723 6.723s-3.016 6.723-6.723 6.723-6.723-3.016-6.723-6.723 3.016-6.723 6.723-6.723z"/></svg>