<svg width="40" height="40" viewBox="0 0 40 40" xmlns="http://www.w3.org/2000/svg"><title>Settings Icon</title><g><path d="M29.25 14.869l2.743-2.744-4.119-4.119-2.743 2.743-2.069-.69v-4.06h-6.125v4.06l-2.069.689-2.743-2.743-4.119 4.119 2.743 2.744-.69 2.069h-4.06v6.125h4.06l.69 2.069-2.743 2.744 4.119 4.119 2.743-2.743 2.069.69v4.06h6.125v-4.06l2.069-.69 2.743 2.743 4.119-4.119-2.743-2.744.69-2.069h4.06v-6.125h-4.06l-.69-2.069zm3.875 7.319h-3.815l-1.06 3.181 2.507 2.506-2.881 2.881-2.507-2.507-3.181 1.06v3.815h-4.375v-3.815l-3.181-1.06-2.507 2.507-2.881-2.881 2.507-2.506-1.06-3.181h-3.815v-4.375h3.815l1.06-3.181-2.507-2.506 2.881-2.881 2.507 2.507 3.181-1.06v-3.815h4.375v3.815l3.181 1.061 2.507-2.507 2.881 2.881-2.507 2.506 1.06 3.181h3.815v4.375zM20 16.938c-1.689 0-3.063 1.374-3.063 3.063 0 1.688 1.374 3.063 3.063 3.063s3.063-1.374 3.063-3.063c0-1.688-1.374-3.063-3.063-3.063zm0 5.25c-1.206 0-2.188-.981-2.188-2.188 0-1.206.981-2.188 2.188-2.188 1.206 0 2.188.981 2.188 2.188 0 1.206-.981 2.188-2.188 2.188z"/></g></svg>