<svg width="40" height="40" viewBox="0 0 40 40" xmlns="http://www.w3.org/2000/svg"><title>Share Icon</title><path d="M27.328 9c-2.576 0-4.672 2.096-4.672 4.672 0 .971.298 1.873.807 2.621l-7.778 4.95c-.711-.681-1.672-1.103-2.732-1.103-2.18 0-3.953 1.774-3.953 3.953 0 2.18 1.774 3.953 3.953 3.953 1.486 0 2.781-.825 3.456-2.04l6.611 2.645-.005.114c0 1.784 1.451 3.234 3.234 3.234 1.784 0 3.234-1.451 3.234-3.234 0-1.784-1.451-3.234-3.234-3.234-1.491 0-2.746 1.016-3.119 2.39l-6.432-2.573c.133-.395.208-.816.208-1.255 0-.859-.278-1.652-.745-2.301l7.758-4.937c.854.913 2.064 1.488 3.409 1.488 2.576 0 4.672-2.096 4.672-4.672 0-2.576-2.096-4.672-4.672-4.672zm-1.078 17.25c1.387 0 2.516 1.129 2.516 2.516s-1.129 2.516-2.516 2.516-2.516-1.129-2.516-2.516 1.129-2.516 2.516-2.516zm-13.297 1.078c-1.784 0-3.234-1.451-3.234-3.234 0-1.784 1.451-3.234 3.234-3.234 1.784 0 3.234 1.451 3.234 3.234 0 1.784-1.451 3.234-3.234 3.234zm14.375-9.703c-2.18 0-3.953-1.774-3.953-3.953 0-2.18 1.774-3.953 3.953-3.953 2.18 0 3.953 1.774 3.953 3.953 0 2.18-1.774 3.953-3.953 3.953z"/></svg>