<svg width="40" height="40" viewBox="0 0 40 40" xmlns="http://www.w3.org/2000/svg"><title>Twitter Icon</title><path d="M33.792 11.737c-1.023.461-2.12.774-3.274.913 1.177-.717 2.079-1.855 2.506-3.206-1.105.664-2.324 1.146-3.623 1.408-1.04-1.129-2.52-1.832-4.161-1.832-3.149 0-5.702 2.596-5.702 5.797 0 .454.05.897.148 1.321-4.738-.242-8.939-2.55-11.75-6.058-.491.855-.771 1.851-.771 2.914 0 2.012 1.007 3.787 2.536 4.825-.934-.032-1.813-.293-2.582-.728v.072c0 2.808 1.966 5.152 4.573 5.686-.478.131-.981.203-1.502.203-.368 0-.724-.037-1.073-.108.726 2.305 2.831 3.981 5.325 4.027-1.95 1.554-4.41 2.478-7.081 2.478-.46 0-.914-.028-1.36-.079 2.523 1.648 5.519 2.609 8.739 2.609 10.488 0 16.221-8.835 16.221-16.497l-.019-.751c1.12-.813 2.089-1.833 2.852-2.996z"/></svg>