<svg width="40" height="40" viewBox="0 0 40 40" xmlns="http://www.w3.org/2000/svg"><title>Account Icon</title><g><path d="M20.5 25.25c1.73 0 3.136-1.451 3.136-3.234h-.697c0 1.387-1.095 2.516-2.439 2.516-1.345 0-2.439-1.128-2.439-2.516h-.697c0 1.783 1.407 3.234 3.136 3.234z"/><path d="M15.621 18.063h.697v.719h-.697zM24.682 18.063h.697v.719h-.697z"/><path d="M20.5 31c-2.979 0-5.779-1.196-7.885-3.369-2.107-2.172-3.267-5.06-3.267-8.131 0-3.072 1.16-5.959 3.267-8.131 2.106-2.172 4.906-3.369 7.885-3.369s5.779 1.196 7.885 3.369c2.107 2.172 3.267 5.06 3.267 8.131 0 3.072-1.16 5.959-3.267 8.131-2.106 2.172-4.907 3.369-7.885 3.369zm0-22.281c-2.793 0-5.418 1.122-7.392 3.158-1.975 2.036-3.062 4.743-3.062 7.623s1.088 5.587 3.062 7.623c1.975 2.037 4.6 3.158 7.392 3.158 2.792 0 5.418-1.122 7.392-3.158 1.975-2.036 3.062-4.743 3.062-7.623s-1.088-5.587-3.062-7.623c-1.975-2.037-4.6-3.158-7.392-3.158z"/></g></svg>