<svg width="40" height="40" viewBox="0 0 40 40" xmlns="http://www.w3.org/2000/svg"><title>Zoom Icon</title><g><path d="M16.785 13.246h-.708v2.831h-2.831v.708h2.831v2.831h.708v-2.831h2.831v-.708h-2.831v-2.831zM23.508 23.007l-1.587-1.587c1.201-1.321 1.94-3.068 1.94-4.99 0-4.098-3.334-7.431-7.431-7.431-4.097 0-7.431 3.333-7.431 7.431s3.334 7.431 7.431 7.431c1.922 0 3.669-.739 4.99-1.94l1.587 1.587-1.062 1.062 7.223 7.223 2.623-2.623-7.223-7.223-1.062 1.062zm-13.8-6.577c0-3.707 3.016-6.723 6.723-6.723s6.723 3.016 6.723 6.723-3.016 6.723-6.723 6.723-6.723-3.016-6.723-6.723zm19.462 14.361l-6.223-6.223 1.623-1.623 6.223 6.223-1.623 1.623z"/></g></svg>